<?xml version="1.0" encoding="UTF-8" standalone="no"?>
<!DOCTYPE svg PUBLIC "-//W3C//DTD SVG 1.1//EN" "http://www.w3.org/Graphics/SVG/1.1/DTD/svg11.dtd">
<svg width="100%" height="100%" viewBox="0 0 545 545" version="1.1" xmlns="http://www.w3.org/2000/svg" xmlns:xlink="http://www.w3.org/1999/xlink" xml:space="preserve" xmlns:serif="http://www.serif.com/" style="fill-rule:evenodd;clip-rule:evenodd;stroke-linejoin:round;stroke-miterlimit:2;">
    <path d="M272.1,0C2.1,0 0,121.8 0,272.1C0,422.4 2.1,544.2 272.1,544.2C542.1,544.2 544.2,422.4 544.2,272.1C544.2,121.8 542.1,0 272.1,0Z" style="fill:rgb(35,106,156);fill-rule:nonzero;"/>
    <g transform="matrix(1,0,0,1,49.95,-35.2031)">
        <path d="M327.6,210.4C330.6,208.6 332.5,205.3 332.5,201.8C332.5,198.3 330.7,195 327.6,193.2L210.8,122.3C207.7,120.4 202,120.3 198.8,122.1C195.6,123.9 191.3,127.3 191.3,130.9L191.3,154.8C191.3,162.1 187.3,168.4 180,169.5C142,175.7 111.8,208.4 111.8,247.7C111.8,259.5 114.7,270.6 119.3,280.6C120,282.1 121.7,283.1 123.4,283.1C125.1,283.1 126.7,282.1 127.4,280.5C136.6,260.1 154.1,244.3 175.7,237.5C179.9,236.2 183.2,236.9 186.8,239.5C190.4,242.1 191.2,246.2 191.2,250.7L191.2,272.7C191.2,276.3 195.5,279.7 198.6,281.5C201.8,283.3 207.3,283.2 210.5,281.3L327.6,210.4Z" style="fill:white;fill-rule:nonzero;"/>
    </g>
    <g transform="matrix(0.0784751,-1.20179e-16,-1.20179e-16,-0.0784751,61.1588,595.496)">
        <g>
            <path d="M4328,4117L1048,4117L826,4114C580,4110 570,4108 499,4037C442,3980 426,3941 426,3864C426,3787 442,3748 499,3691C553,3637 594,3620 680,3614C722,3611 756,3607 756,3605C756,3561 784,3369 804,3281C841,3115 875,3016 946,2867C1140,2463 1457,2146 1859,1954C2313,1738 2815,1707 3303,1865C3555,1947 3836,2120 4037,2317C4250,2526 4433,2815 4519,3081C4565,3223 4620,3508 4620,3605C4620,3607 4654,3611 4696,3614C4782,3620 4823,3637 4877,3691C4934,3748 4950,3787 4950,3864C4950,3941 4934,3980 4877,4037C4806,4108 4796,4110 4550,4114L4328,4117ZM1312,4121L4064,4121L3376,4119C2998,4117 2378,4117 2000,4119L1312,4121ZM4767,3927C4781,3913 4788,3892 4788,3864C4788,3836 4781,3815 4767,3801C4746,3780 4732,3780 2688,3780C644,3780 630,3780 609,3801C595,3815 588,3836 588,3864C588,3892 595,3913 609,3927C630,3948 644,3948 2688,3948C4732,3948 4746,3948 4767,3927ZM1263,3525L1176,3439L1089,3525L1003,3612L1349,3612L1263,3525ZM2019,3525L1932,3439L1845,3525L1759,3612L2105,3612L2019,3525ZM2775,3525L2688,3439L2601,3525L2515,3612L2861,3612L2775,3525ZM3531,3525L3444,3439L3357,3525L3271,3612L3617,3612L3531,3525ZM4287,3525L4200,3439L4113,3525L4027,3612L4373,3612L4287,3525ZM1685,3444L1811,3318L1683,3189L1554,3061L1425,3189L1297,3318L1423,3444C1492,3513 1551,3570 1554,3570C1557,3570 1616,3513 1685,3444ZM2441,3444L2567,3318L2439,3189L2310,3061L2181,3189L2053,3318L2179,3444C2248,3513 2307,3570 2310,3570C2313,3570 2372,3513 2441,3444ZM3197,3444L3323,3318L3195,3189L3066,3061L2937,3189L2809,3318L2935,3444C3004,3513 3063,3570 3066,3570C3069,3570 3128,3513 3197,3444ZM3953,3444L4079,3318L3951,3189L3822,3061L3693,3189L3565,3318L3691,3444C3760,3513 3819,3570 3822,3570C3825,3570 3884,3513 3953,3444ZM1024,3287C1007,3269 990,3255 986,3255C981,3255 973,3282 966,3315C959,3349 951,3388 948,3402C943,3425 951,3420 999,3373L1054,3319L1024,3287ZM4415,3339C4406,3296 4397,3259 4394,3256C4391,3253 4373,3266 4355,3284L4321,3318L4373,3370C4401,3399 4426,3421 4428,3419C4430,3417 4424,3381 4415,3339ZM1307,3066L1433,2940L1328,2835C1271,2777 1220,2730 1216,2730C1205,2730 1136,2854 1085,2966L1041,3061L1106,3126C1141,3162 1173,3192 1176,3192C1179,3192 1238,3135 1307,3066ZM2063,3066L2189,2940L2061,2811L1932,2683L1803,2811L1675,2940L1801,3066C1870,3135 1929,3192 1932,3192C1935,3192 1994,3135 2063,3066ZM2819,3066L2945,2940L2817,2811L2688,2683L2559,2811L2431,2940L2557,3066C2626,3135 2685,3192 2688,3192C2691,3192 2750,3135 2819,3066ZM3575,3066L3701,2940L3573,2811L3444,2683L3315,2811L3187,2940L3313,3066C3382,3135 3441,3192 3444,3192C3447,3192 3506,3135 3575,3066ZM4270,3126L4335,3061L4291,2966C4240,2854 4171,2730 4160,2730C4156,2730 4105,2777 4048,2835L3943,2940L4069,3066C4138,3135 4197,3192 4200,3192C4203,3192 4235,3162 4270,3126ZM1685,2688L1811,2562L1696,2447C1632,2383 1577,2331 1573,2331C1562,2331 1390,2497 1353,2543L1320,2585L1434,2699C1497,2762 1551,2814 1554,2814C1557,2814 1616,2757 1685,2688ZM2441,2688L2567,2562L2439,2433L2310,2305L2181,2433L2053,2562L2179,2688C2248,2757 2307,2814 2310,2814C2313,2814 2372,2757 2441,2688ZM3197,2688L3323,2562L3195,2433L3066,2305L2937,2433L2809,2562L2935,2688C3004,2757 3063,2814 3066,2814C3069,2814 3128,2757 3197,2688ZM3942,2699L4056,2585L4023,2543C3986,2497 3814,2331 3803,2331C3799,2331 3744,2383 3680,2447L3565,2562L3691,2688C3760,2757 3819,2814 3822,2814C3825,2814 3879,2762 3942,2699ZM2063,2310L2189,2184L2121,2117L2053,2049L1958,2093C1847,2144 1722,2213 1722,2224C1722,2232 1924,2436 1932,2436C1935,2436 1994,2379 2063,2310ZM2819,2310L2945,2184L2817,2055L2688,1927L2559,2055L2431,2184L2557,2310C2626,2379 2685,2436 2688,2436C2691,2436 2750,2379 2819,2310ZM3551,2334C3608,2278 3654,2228 3654,2224C3654,2213 3530,2145 3418,2093L3323,2049L3255,2117L3187,2184L3313,2310C3382,2379 3441,2436 3444,2436C3447,2436 3495,2390 3551,2334ZM2368,2004C2413,1957 2417,1951 2394,1956C2380,1959 2341,1967 2307,1974C2274,1981 2247,1989 2247,1993C2247,2001 2302,2058 2310,2058C2313,2058 2339,2034 2368,2004ZM3100,2030C3116,2014 3129,1998 3129,1994C3129,1989 3102,1981 3069,1974C3035,1967 2996,1959 2982,1956C2959,1951 2963,1957 3008,2004C3037,2034 3062,2058 3065,2058C3068,2058 3083,2045 3100,2030Z" style="fill:white;fill-rule:nonzero;"/>
        </g>
    </g>
</svg>
